<svg width="300" height="74" viewBox="0 0 300 74" fill="none" xmlns="http://www.w3.org/2000/svg">
<g clip-path="url(#clip0_3940_14243)">
<path d="M84.908 33.8856H85.5077C85.5077 33.8856 85.5077 34.074 85.5077 34.4037C85.5634 34.8374 85.6659 35.2637 85.8135 35.6753C85.9908 36.2215 86.257 36.7347 86.6014 37.1941C87.0127 37.7258 87.5396 38.1566 88.142 38.454C88.9279 38.8243 89.7906 39.0019 90.6587 38.972C91.1346 38.98 91.6083 38.9043 92.0581 38.7483C92.4892 38.6129 92.889 38.3927 93.2341 38.1007C93.5462 37.8226 93.8018 37.4868 93.9868 37.1117C94.1591 36.7108 94.2395 36.2762 94.222 35.8401C94.2114 35.4909 94.1273 35.1479 93.9754 34.8334C93.8234 34.519 93.6069 34.2401 93.34 34.0151C92.6308 33.382 91.8397 32.8474 90.9879 32.4256L88.2831 31.0363C87.8655 30.8184 87.4714 30.558 87.1071 30.2592C86.7301 29.9502 86.3941 29.5941 86.1075 29.1995C85.8081 28.8042 85.5665 28.3681 85.3901 27.9044C85.2261 27.427 85.1426 26.9257 85.1432 26.4209C85.1383 25.8559 85.2588 25.2969 85.496 24.7843C85.7284 24.279 86.0558 23.8233 86.4603 23.442C86.8912 23.0469 87.3943 22.7391 87.9421 22.5354C88.5447 22.3144 89.1819 22.2028 89.8237 22.2057C90.518 22.1801 91.2102 22.2962 91.8582 22.5472C92.3567 22.7706 92.8298 23.0469 93.2694 23.3714C93.4476 23.2073 93.6091 23.0258 93.7516 22.8298C93.9095 22.5983 94.0213 22.3384 94.0808 22.0645H94.6453V28.2812H94.0573C93.9975 27.7023 93.8993 27.128 93.7633 26.5621C93.6283 25.9895 93.3891 25.4467 93.0577 24.9609C92.7234 24.4777 92.2854 24.0754 91.7759 23.7835C91.1496 23.4545 90.448 23.2961 89.7414 23.3243C89.3757 23.3099 89.0109 23.368 88.6678 23.4953C88.3247 23.6226 88.0101 23.8166 87.7421 24.066C87.4925 24.2915 87.2941 24.5679 87.1602 24.8766C87.0263 25.1853 86.9601 25.5192 86.966 25.8557C86.9639 26.1918 87.032 26.5247 87.1659 26.8329C87.3115 27.1503 87.5149 27.4378 87.7657 27.6807C88.0889 27.9846 88.4437 28.253 88.8241 28.4813C89.2592 28.7521 89.7884 29.0347 90.4117 29.3644L93.093 30.7419C94.0554 31.1477 94.8745 31.8325 95.445 32.7082C95.8783 33.4175 96.1101 34.2316 96.1153 35.063C96.1226 35.7848 95.9742 36.4997 95.6802 37.1588C95.3989 37.7624 94.9989 38.303 94.5042 38.7483C94.0057 39.1976 93.4272 39.5491 92.799 39.7844C92.1334 40.033 91.4278 40.1567 90.7174 40.1494C90.2288 40.156 89.7417 40.0925 89.271 39.961C88.8719 39.8494 88.4793 39.7157 88.095 39.5607C87.7186 39.4076 87.4011 39.2546 87.1189 39.1251C86.8772 38.9927 86.6206 38.8899 86.3545 38.8189C86.1762 38.9831 86.0147 39.1645 85.8723 39.3606C85.7082 39.5987 85.5924 39.8667 85.5313 40.1494H84.9668L84.908 33.8856Z" fill="#2C2A29"/>
<path d="M96.6326 39.2077C96.9639 39.2169 97.2952 39.1893 97.6204 39.1253C97.8404 39.0939 98.0479 39.0042 98.2216 38.8655C98.3953 38.7268 98.5288 38.5441 98.6083 38.3364C98.7141 38.1127 98.8552 37.8302 99.0081 37.4887L103.359 27.4219H103.606L107.981 37.4887L108.369 38.3364C108.453 38.5415 108.587 38.7217 108.76 38.8598C108.933 38.998 109.139 39.0894 109.357 39.1253C109.678 39.19 110.006 39.2176 110.333 39.2077V39.6198H104.853V39.2077C105.402 39.2833 105.96 39.1624 106.429 38.8663C106.64 38.6465 106.64 38.254 106.429 37.6889L105.488 35.4989H100.678L99.7255 37.6889C99.4903 38.2305 99.4785 38.619 99.7255 38.8663C100.194 39.1624 100.752 39.2833 101.301 39.2077V39.6198H96.6326V39.2077ZM105.112 34.7807L103.03 30.0122L100.972 34.7807H105.112Z" fill="#2C2A29"/>
<path d="M110.274 39.2081C110.606 39.2161 110.937 39.1885 111.262 39.1256C111.485 39.0889 111.685 38.9715 111.827 38.796C111.974 38.5833 112.063 38.3357 112.086 38.0778C112.114 37.6858 112.114 37.2923 112.086 36.9004V30.4599C112.114 30.068 112.114 29.6745 112.086 29.2825C112.064 29.0318 111.974 28.7917 111.827 28.5879C111.682 28.4163 111.483 28.2999 111.262 28.2582C110.936 28.2059 110.605 28.1823 110.274 28.1875V27.7637H115.602V28.1875C115.271 28.1813 114.94 28.205 114.614 28.2582C114.391 28.3026 114.189 28.4183 114.038 28.5879C113.894 28.7929 113.809 29.0329 113.791 29.2825C113.743 29.6731 113.723 30.0666 113.732 30.4599V36.8886C113.723 37.2819 113.743 37.6754 113.791 38.066C113.809 38.3228 113.895 38.5703 114.038 38.7842C114.185 38.9581 114.389 39.0747 114.614 39.1139C114.939 39.1778 115.27 39.2055 115.602 39.1963V39.6084H110.274V39.2081Z" fill="#2C2A29"/>
<path d="M119.659 30.0125V36.8886C119.631 37.2805 119.631 37.674 119.659 38.066C119.69 38.3237 119.783 38.5701 119.929 38.7842C120.075 38.9605 120.28 39.0777 120.506 39.1139C120.831 39.1778 121.162 39.2055 121.493 39.1963V39.6084H116.989V39.1963C117.321 39.2049 117.652 39.1773 117.977 39.1139C118.202 39.0747 118.406 38.9581 118.553 38.7842C118.697 38.5703 118.782 38.3228 118.8 38.066C118.848 37.6754 118.868 37.2819 118.859 36.8886V30.4599C118.868 30.0666 118.848 29.6731 118.8 29.2825C118.782 29.0329 118.697 28.7929 118.553 28.5879C118.402 28.4183 118.2 28.3026 117.977 28.2582C117.651 28.2055 117.32 28.1818 116.989 28.1875V27.7637H119.777L127.362 37.1829V30.4717C127.384 30.0796 127.384 29.6864 127.362 29.2943C127.335 29.0448 127.246 28.806 127.103 28.5996C126.954 28.4272 126.751 28.3109 126.527 28.27C126.2 28.2167 125.87 28.1931 125.539 28.1993V27.7754H130.078V28.1993C129.748 28.1936 129.417 28.2172 129.091 28.27C128.87 28.3116 128.671 28.4281 128.526 28.5996C128.374 28.8022 128.281 29.0424 128.256 29.2943C128.203 29.6845 128.179 30.078 128.185 30.4717V39.9616H127.726L119.659 30.0125Z" fill="#2C2A29"/>
<path d="M133.853 39.2081C134.185 39.2173 134.516 39.1896 134.841 39.1256C135.068 39.0927 135.274 38.9749 135.418 38.796C135.564 38.5818 135.657 38.3355 135.688 38.0778C135.74 37.6875 135.764 37.294 135.759 36.9003V28.5408H133.183C132.825 28.5316 132.466 28.5592 132.113 28.6232C131.881 28.6683 131.661 28.7604 131.466 28.894C131.312 29.0152 131.191 29.1731 131.113 29.3532C131.025 29.576 130.95 29.804 130.89 30.0361L130.796 30.4364H130.384L130.561 27.7637H142.532L142.709 30.4364H142.297L142.191 30.0361C142.14 29.8029 142.069 29.5745 141.98 29.3532C141.902 29.1731 141.781 29.0152 141.627 28.894C141.435 28.7625 141.219 28.6704 140.992 28.6232C140.631 28.5584 140.265 28.5307 139.898 28.5408H137.334V36.9003C137.329 37.294 137.353 37.6875 137.405 38.0778C137.431 38.3368 137.524 38.5845 137.675 38.796C137.817 38.9715 138.018 39.0889 138.24 39.1256C138.565 39.1885 138.897 39.2161 139.228 39.2081V39.6202H133.853V39.2081Z" fill="#2C2A29"/>
<path d="M150.388 45.9188C149.932 45.9173 149.478 45.8619 149.036 45.754C148.578 45.6449 148.135 45.4788 147.718 45.2595C147.323 45.0455 146.971 44.7578 146.684 44.4117C146.413 44.0799 146.267 43.663 146.272 43.2343C146.273 43.1084 146.3 42.9839 146.35 42.8686C146.401 42.7532 146.474 42.6493 146.566 42.5632C146.658 42.4696 146.768 42.3961 146.889 42.3474C147.011 42.2988 147.141 42.276 147.272 42.2806C147.523 42.2837 147.764 42.3851 147.942 42.5633C148.12 42.7415 148.221 42.9823 148.224 43.2343C148.243 43.7057 148.44 44.1522 148.777 44.4824C148.994 44.6922 149.253 44.8533 149.537 44.9549C149.82 45.0564 150.123 45.096 150.423 45.0711C150.803 45.0875 151.181 45.0114 151.525 44.8494C151.87 44.6874 152.169 44.4443 152.399 44.1409C152.94 43.2507 153.187 42.2126 153.105 41.1739V26.5387C153.114 25.9684 153.087 25.3982 153.022 24.8315C152.991 24.4751 152.865 24.1336 152.658 23.8424C152.446 23.5943 152.155 23.4278 151.835 23.3715C151.368 23.2917 150.896 23.2562 150.423 23.2655V22.665H158.044V23.2655C157.571 23.2572 157.099 23.2927 156.633 23.3715C156.316 23.4303 156.03 23.5967 155.821 23.8424C155.609 24.131 155.482 24.4739 155.457 24.8315C155.387 25.3978 155.356 25.9682 155.363 26.5387V40.8677C155.393 41.7233 155.236 42.5751 154.904 43.3638C154.651 43.9444 154.268 44.4588 153.785 44.8672C153.302 45.2756 152.731 45.5669 152.117 45.7187C151.552 45.8618 150.971 45.9291 150.388 45.9188Z" fill="#2C2A29"/>
<path d="M158.303 39.2077C158.634 39.2169 158.965 39.1893 159.291 39.1253C159.511 39.0939 159.718 39.0042 159.892 38.8655C160.065 38.7268 160.199 38.5441 160.278 38.3364C160.384 38.1127 160.525 37.8302 160.678 37.4887L165.03 27.4219H165.276L169.651 37.4887L170.039 38.3364C170.133 38.5396 170.27 38.7203 170.439 38.8663C170.613 38.9964 170.814 39.085 171.027 39.1253C171.348 39.1894 171.676 39.217 172.003 39.2077V39.6198H166.523V39.2077C167.072 39.2833 167.63 39.1624 168.099 38.8663C168.311 38.6465 168.311 38.254 168.099 37.6889L167.158 35.4989H162.372L161.419 37.6889C161.184 38.2305 161.172 38.619 161.419 38.8663C161.888 39.1624 162.446 39.2833 162.995 39.2077V39.6198H158.303V39.2077ZM166.782 34.7807L164.712 30.0122L162.654 34.7807H166.782Z" fill="#2C2A29"/>
<path d="M174.484 29.8468V36.9112C174.479 37.3049 174.503 37.6984 174.555 38.0886C174.586 38.3463 174.679 38.5927 174.826 38.8068C174.969 38.9858 175.175 39.1036 175.402 39.1365C175.727 39.2005 176.058 39.2281 176.39 39.2189V39.631H171.885V39.2189C172.217 39.227 172.548 39.1994 172.873 39.1365C173.096 39.0997 173.296 38.9824 173.438 38.8068C173.591 38.5969 173.68 38.3478 173.697 38.0886C173.725 37.6966 173.725 37.3032 173.697 36.9112V30.459C173.725 30.067 173.725 29.6736 173.697 29.2816C173.68 29.0296 173.59 28.788 173.438 28.5869C173.293 28.4154 173.094 28.299 172.873 28.2573C172.547 28.205 172.216 28.1814 171.885 28.1866V27.7627H175.237L179.471 37.3822L183.646 27.751H186.75V28.1748C186.42 28.1686 186.089 28.1923 185.762 28.2455C185.535 28.2866 185.328 28.4027 185.174 28.5752C185.023 28.7777 184.929 29.0179 184.904 29.2698C184.862 29.6609 184.842 30.054 184.845 30.4472V36.8759C184.843 37.2691 184.862 37.6622 184.904 38.0533C184.93 38.3123 185.023 38.56 185.174 38.7715C185.325 38.9478 185.534 39.0647 185.762 39.1012C186.088 39.1651 186.419 39.1928 186.75 39.1836V39.5957H181.411V39.1836C181.743 39.1928 182.074 39.1651 182.399 39.1012C182.624 39.062 182.828 38.9454 182.975 38.7715C183.118 38.5563 183.206 38.31 183.234 38.0533C183.276 37.6622 183.295 37.2691 183.293 36.8759V30.4472L179.177 39.9607H178.918L174.484 29.8468Z" fill="#2C2A29"/>
<path d="M188.126 39.2081C188.457 39.2161 188.789 39.1885 189.114 39.1256C189.336 39.0889 189.537 38.9715 189.678 38.796C189.826 38.5833 189.915 38.3357 189.937 38.0778C189.965 37.6858 189.965 37.2923 189.937 36.9004V30.4599C189.965 30.068 189.965 29.6745 189.937 29.2825C189.915 29.0318 189.826 28.7917 189.678 28.5879C189.534 28.4163 189.334 28.2999 189.114 28.2582C188.787 28.2059 188.457 28.1823 188.126 28.1875V27.7637H197.111L197.287 30.3775H196.876L196.77 29.9772C196.699 29.7182 196.629 29.4945 196.558 29.3061C196.476 29.129 196.35 28.9752 196.194 28.8587C196.007 28.7251 195.795 28.6327 195.57 28.5879C195.21 28.5187 194.843 28.4871 194.477 28.4937H191.584V32.9914H192.571C192.963 33.0138 193.356 33.0138 193.747 32.9914C193.999 32.9661 194.239 32.8724 194.441 32.7206C194.614 32.5666 194.73 32.3594 194.771 32.1318C194.824 31.805 194.847 31.474 194.841 31.1428H195.265V35.6052H194.841C194.84 35.2895 194.813 34.9743 194.759 34.6633C194.715 34.4436 194.599 34.2448 194.43 34.0981C194.23 33.9417 193.989 33.8475 193.736 33.8273C193.345 33.7852 192.953 33.7656 192.56 33.7684H191.572V36.6531C191.544 37.0451 191.544 37.4385 191.572 37.8305C191.586 38.0864 191.676 38.3323 191.831 38.5369C191.973 38.709 192.174 38.8222 192.395 38.8548C192.72 38.9188 193.052 38.9465 193.383 38.9373H195.088C195.455 38.9468 195.821 38.9192 196.182 38.8548C196.412 38.8044 196.631 38.7126 196.829 38.584C196.986 38.4643 197.105 38.3004 197.17 38.1131C197.252 37.8892 197.323 37.6613 197.381 37.4302L197.475 37.0416H197.887L197.734 39.6673H188.056L188.126 39.2081Z" fill="#2C2A29"/>
<path d="M200.051 35.6045H200.474C200.474 35.6045 200.474 35.7458 200.474 35.9695C200.514 36.2743 200.585 36.5741 200.686 36.8644C200.809 37.2465 200.996 37.6048 201.239 37.924C201.522 38.2978 201.888 38.6001 202.309 38.8071C202.865 39.0653 203.473 39.1903 204.085 39.1721C204.417 39.1739 204.747 39.1182 205.061 39.0072C205.344 38.9055 205.607 38.754 205.837 38.5598C206.055 38.3634 206.235 38.1277 206.366 37.8652C206.489 37.5912 206.553 37.2943 206.554 36.9939C206.545 36.7485 206.484 36.5077 206.377 36.2868C206.27 36.066 206.118 35.8697 205.931 35.7105C205.431 35.2682 204.873 34.8958 204.273 34.6037L202.38 33.6265C202.085 33.4794 201.808 33.2976 201.556 33.0849C201.286 32.8733 201.049 32.6234 200.851 32.3431C200.649 32.0605 200.487 31.7515 200.369 31.4247C200.251 31.0839 200.191 30.7257 200.192 30.3651C200.183 29.9588 200.268 29.556 200.439 29.1877C200.599 28.8301 200.832 28.5094 201.121 28.2457C201.42 27.9669 201.772 27.7508 202.156 27.6099C202.578 27.4548 203.024 27.3789 203.473 27.3862C203.959 27.3658 204.443 27.446 204.896 27.6217C205.246 27.7768 205.577 27.9703 205.884 28.1986C206.006 28.0839 206.116 27.9578 206.213 27.8219C206.326 27.6585 206.406 27.4745 206.449 27.2803H206.848V31.6367H206.519C206.469 31.2408 206.399 30.8478 206.307 30.4593C206.216 30.04 206.048 29.641 205.813 29.2819C205.576 28.9466 205.267 28.6689 204.908 28.4695C204.47 28.2395 203.979 28.1298 203.485 28.1516C202.981 28.133 202.491 28.315 202.121 28.6578C201.945 28.8139 201.806 29.0064 201.713 29.222C201.619 29.4376 201.574 29.671 201.58 29.9059C201.572 30.1403 201.616 30.3736 201.709 30.5888C201.812 30.8134 201.956 31.017 202.133 31.1893C202.362 31.4 202.61 31.5892 202.873 31.7544L203.979 32.3667L205.861 33.3321C206.521 33.6227 207.082 34.1019 207.472 34.7097C207.766 35.2007 207.925 35.7617 207.93 36.3345C207.942 36.842 207.837 37.3454 207.625 37.8063C207.437 38.2501 207.161 38.6507 206.813 38.9837C206.468 39.2922 206.069 39.5356 205.637 39.7019C205.174 39.8716 204.684 39.9592 204.191 39.9609C203.845 39.963 203.501 39.9194 203.167 39.8314C202.88 39.755 202.597 39.6606 202.321 39.5489C202.062 39.4429 201.839 39.3369 201.639 39.231C201.47 39.1463 201.292 39.0792 201.109 39.0308C200.935 39.1178 200.776 39.2332 200.639 39.3722C200.522 39.5375 200.441 39.7263 200.404 39.9256H200.004L200.051 35.6045Z" fill="#2C2A29"/>
<path d="M217.033 33.8857H217.621C217.621 33.8857 217.621 34.0741 217.621 34.4038C217.665 34.8382 217.764 35.2654 217.915 35.6754C218.097 36.2197 218.362 36.7321 218.702 37.1942C219.114 37.7259 219.641 38.1567 220.243 38.4541C221.033 38.8241 221.9 39.0016 222.772 38.9721C223.244 38.9792 223.713 38.9035 224.159 38.7484C224.59 38.613 224.99 38.3928 225.335 38.1008C225.651 37.826 225.907 37.4894 226.088 37.1118C226.269 36.7208 226.361 36.2946 226.358 35.8638C226.346 35.5138 226.259 35.1705 226.105 34.8561C225.951 34.5417 225.733 34.2632 225.465 34.0388C224.756 33.4045 223.965 32.8698 223.113 32.4493L220.396 31.0599C219.978 30.842 219.584 30.5816 219.22 30.2829C218.843 29.9738 218.507 29.6177 218.22 29.2232C217.927 28.8192 217.694 28.3751 217.526 27.9045C217.36 27.4197 217.276 26.9101 217.28 26.3974C217.275 25.8325 217.395 25.2735 217.632 24.7608C217.865 24.2527 218.197 23.7964 218.608 23.4186C219.035 23.0185 219.54 22.7099 220.09 22.512C220.689 22.2911 221.322 22.1795 221.96 22.1823C222.654 22.1566 223.347 22.2728 223.995 22.5238C224.493 22.7471 224.966 23.0234 225.406 23.3479C225.584 23.1838 225.746 23.0024 225.888 22.8063C226.05 22.5756 226.166 22.3157 226.229 22.041H226.793V28.2577H226.194C226.134 27.6788 226.036 27.1046 225.9 26.5387C225.765 25.9661 225.525 25.4233 225.194 24.9374C224.863 24.4515 224.424 24.0486 223.912 23.76C223.286 23.4311 222.584 23.2727 221.878 23.3008C221.153 23.278 220.448 23.54 219.914 24.0308C219.664 24.2563 219.466 24.5327 219.332 24.8414C219.198 25.1501 219.132 25.484 219.138 25.8205C219.136 26.1566 219.204 26.4895 219.338 26.7977C219.483 27.118 219.691 27.4062 219.949 27.6455C220.268 27.9549 220.623 28.2238 221.007 28.4461C221.431 28.7169 221.96 28.9995 222.583 29.3292L225.265 30.7067C226.224 31.118 227.041 31.8016 227.617 32.673C228.039 33.3862 228.267 34.1985 228.275 35.0278C228.288 35.7502 228.14 36.4663 227.84 37.1236C227.559 37.7272 227.159 38.2677 226.664 38.7131C226.167 39.165 225.588 39.5168 224.959 39.7492C224.297 39.9969 223.596 40.1206 222.889 40.1142C222.397 40.1208 221.906 40.0573 221.431 39.9258C221.032 39.8142 220.639 39.6805 220.255 39.5255L219.279 39.0899C219.037 38.9575 218.78 38.8547 218.514 38.7837C218.336 38.9478 218.175 39.1293 218.032 39.3253C217.872 39.5644 217.76 39.8323 217.703 40.1142H217.138L217.033 33.8857Z" fill="#2C2A29"/>
<path d="M236.978 39.9616C236.167 39.9673 235.365 39.7987 234.626 39.4671C233.899 39.1474 233.241 38.6918 232.685 38.1248C232.129 37.5455 231.686 36.8665 231.38 36.1232C230.725 34.5987 230.699 32.8767 231.307 31.3327C231.915 29.7888 233.108 28.5482 234.626 27.8814C235.365 27.5498 236.167 27.3811 236.978 27.3869C237.66 27.3826 238.336 27.5315 238.953 27.8225C239.586 28.135 240.153 28.5667 240.623 29.0941C240.779 28.9667 240.914 28.8158 241.023 28.6467C241.156 28.4427 241.248 28.2148 241.294 27.9756H241.693V32.3084H241.294C241.095 31.1717 240.572 30.1167 239.788 29.2707C239.433 28.9212 239.012 28.6455 238.55 28.4596C238.088 28.2737 237.593 28.1812 237.095 28.1875C236.393 28.1663 235.7 28.346 235.096 28.7056C234.553 29.0354 234.094 29.4868 233.755 30.0243C233.409 30.5661 233.159 31.1635 233.015 31.7904C232.717 33.0365 232.717 34.3354 233.015 35.5816C233.159 36.2084 233.409 36.8058 233.755 37.3477C234.098 37.879 234.556 38.3258 235.096 38.6546C235.7 39.0142 236.393 39.1939 237.095 39.1727C237.607 39.1875 238.116 39.0968 238.592 38.9065C239.067 38.7161 239.498 38.43 239.859 38.0659C240.643 37.2295 241.167 36.1819 241.364 35.0518H241.764V39.3729H241.364C241.314 39.1349 241.223 38.9077 241.094 38.7017C240.988 38.5269 240.852 38.3716 240.694 38.2425C240.206 38.735 239.632 39.134 239 39.42C238.377 39.7542 237.685 39.9396 236.978 39.9616Z" fill="#2C2A29"/>
<path d="M243.869 39.2081C244.2 39.2161 244.532 39.1885 244.857 39.1256C245.079 39.0889 245.28 38.9715 245.421 38.796C245.574 38.5861 245.664 38.3369 245.68 38.0778C245.708 37.6858 245.708 37.2923 245.68 36.9004V30.4599C245.708 30.068 245.708 29.6745 245.68 29.2825C245.664 29.0305 245.574 28.7889 245.421 28.5879C245.277 28.4163 245.077 28.2999 244.857 28.2582C244.53 28.2059 244.2 28.1823 243.869 28.1875V27.7637H249.196V28.1875C248.866 28.1823 248.535 28.2059 248.209 28.2582C247.988 28.2999 247.789 28.4163 247.644 28.5879C247.492 28.7889 247.402 29.0305 247.385 29.2825C247.338 29.6731 247.318 30.0666 247.327 30.4599V32.956H254.018V30.4599C254.024 30.0663 254 29.6727 253.948 29.2825C253.92 29.033 253.831 28.7942 253.689 28.5879C253.538 28.4183 253.335 28.3026 253.113 28.2582C252.786 28.205 252.455 28.1813 252.125 28.1875V27.7637H257.499V28.1875C257.168 28.1813 256.838 28.205 256.511 28.2582C256.285 28.3018 256.079 28.4174 255.923 28.5879C255.776 28.7917 255.686 29.0318 255.665 29.2825C255.636 29.6745 255.636 30.068 255.665 30.4599V36.8886C255.636 37.2805 255.636 37.674 255.665 38.066C255.687 38.3239 255.776 38.5715 255.923 38.7842C256.076 38.9582 256.283 39.0745 256.511 39.1139C256.836 39.1778 257.168 39.2055 257.499 39.1963V39.6084H252.125V39.1963C252.456 39.2055 252.787 39.1778 253.113 39.1139C253.337 39.0747 253.541 38.9581 253.689 38.7842C253.831 38.569 253.92 38.3227 253.948 38.066C254 37.6758 254.023 37.2822 254.018 36.8886V33.686H247.327V36.8886C247.318 37.2819 247.338 37.6754 247.385 38.066C247.402 38.3251 247.491 38.5743 247.644 38.7842C247.785 38.9597 247.986 39.0771 248.209 39.1139C248.534 39.1767 248.865 39.2044 249.196 39.1963V39.6084H243.869V39.2081Z" fill="#2C2A29"/>
<path d="M265.837 39.9607C264.091 39.9795 262.405 39.3213 261.133 38.1239C260.544 37.5492 260.065 36.8707 259.722 36.1223C259.381 35.3572 259.205 34.5288 259.205 33.691C259.205 32.8532 259.381 32.0248 259.722 31.2596C260.062 30.5096 260.541 29.8306 261.133 29.258C262.405 28.0607 264.091 27.4025 265.837 27.4213C266.712 27.4144 267.58 27.5826 268.389 27.9158C269.163 28.2303 269.873 28.6854 270.482 29.258C271.074 29.8306 271.553 30.5096 271.893 31.2596C272.234 32.0248 272.41 32.8532 272.41 33.691C272.41 34.5288 272.234 35.3572 271.893 36.1223C271.55 36.8707 271.071 37.5492 270.482 38.1239C269.873 38.6966 269.163 39.1516 268.389 39.4662C267.58 39.7994 266.712 39.9675 265.837 39.9607ZM265.837 39.1718C266.595 39.1935 267.345 39.0148 268.013 38.6537C268.583 38.3278 269.077 37.8819 269.459 37.3468C269.836 36.8116 270.115 36.2136 270.282 35.5807C270.627 34.3406 270.627 33.0296 270.282 31.7895C270.115 31.1566 269.836 30.5585 269.459 30.0234C269.081 29.4817 268.587 29.0312 268.013 28.7047C267.345 28.3436 266.595 28.1649 265.837 28.1866C265.124 28.1604 264.416 28.315 263.778 28.6361C263.141 28.9573 262.595 29.4344 262.191 30.0234C261.814 30.5585 261.536 31.1566 261.368 31.7895C261.023 33.0296 261.023 34.3406 261.368 35.5807C261.536 36.2136 261.814 36.8116 262.191 37.3468C262.575 37.885 263.073 38.3313 263.65 38.6537C264.321 39.0147 265.075 39.1934 265.837 39.1718Z" fill="#2C2A29"/>
<path d="M281.09 39.9607C279.813 39.9854 278.556 39.6351 277.476 38.953C276.395 38.2708 275.538 37.2868 275.01 36.1223C274.669 35.3572 274.493 34.5288 274.493 33.691C274.493 32.8532 274.669 32.0248 275.01 31.2596C275.35 30.5096 275.829 29.8306 276.421 29.258C277.693 28.0607 279.379 27.4025 281.125 27.4213C282 27.4144 282.868 27.5826 283.677 27.9158C284.451 28.2303 285.161 28.6854 285.77 29.258C286.362 29.8306 286.841 30.5096 287.182 31.2596C287.522 32.0248 287.699 32.8532 287.699 33.691C287.699 34.5288 287.522 35.3572 287.182 36.1223C286.838 36.8707 286.36 37.5492 285.77 38.1239C285.161 38.6966 284.451 39.1516 283.677 39.4662C282.857 39.8041 281.977 39.9723 281.09 39.9607ZM281.09 39.1718C281.848 39.1935 282.598 39.0148 283.265 38.6538C283.836 38.3278 284.33 37.8819 284.712 37.3468C285.089 36.8117 285.367 36.2136 285.535 35.5807C285.88 34.3406 285.88 33.0296 285.535 31.7895C285.367 31.1566 285.089 30.5585 284.712 30.0234C284.334 29.4817 283.839 29.0312 283.265 28.7047C282.598 28.3436 281.848 28.1649 281.09 28.1866C280.377 28.1604 279.669 28.315 279.031 28.6361C278.394 28.9573 277.848 29.4344 277.444 30.0234C277.067 30.5585 276.789 31.1566 276.621 31.7895C276.276 33.0296 276.276 34.3406 276.621 35.5807C276.789 36.2136 277.067 36.8117 277.444 37.3468C277.828 37.885 278.326 38.3313 278.902 38.6538C279.574 39.0147 280.328 39.1934 281.09 39.1718Z" fill="#2C2A29"/>
<path d="M289.428 39.2081C289.759 39.2161 290.09 39.1885 290.415 39.1256C290.638 39.0889 290.839 38.9715 290.98 38.796C291.133 38.5861 291.222 38.3369 291.239 38.0778C291.267 37.6858 291.267 37.2923 291.239 36.9004V30.4599C291.267 30.068 291.267 29.6745 291.239 29.2825C291.223 29.0305 291.133 28.7889 290.98 28.5879C290.835 28.4163 290.636 28.2999 290.415 28.2582C290.089 28.2059 289.758 28.1823 289.428 28.1875V27.7637H294.72V28.1875C294.389 28.1823 294.058 28.2059 293.732 28.2582C293.511 28.2999 293.312 28.4163 293.167 28.5879C293.015 28.7889 292.925 29.0305 292.909 29.2825C292.861 29.6731 292.841 30.0666 292.85 30.4599V36.5942C292.841 36.9876 292.861 37.3811 292.909 37.7716C292.923 38.0276 293.013 38.2734 293.167 38.4781C293.31 38.6501 293.511 38.7633 293.732 38.796C294.057 38.8588 294.388 38.8865 294.72 38.8784H297.072C297.434 38.8875 297.797 38.8598 298.154 38.796C298.38 38.7457 298.595 38.6539 298.789 38.5252C298.95 38.4061 299.072 38.2424 299.142 38.0542C299.225 37.8318 299.291 37.6035 299.341 37.3713L299.447 36.9828H299.859L299.694 39.6084H289.428V39.2081Z" fill="#2C2A29"/>
<path d="M84.9431 51.5117H300" stroke="#861F41"/>
<path d="M36.9619 7.06445C31.0589 7.06446 25.2883 8.81626 20.3793 12.0985C15.4703 15.3807 11.6432 20.0461 9.38154 25.5052C7.11987 30.9642 6.52515 36.972 7.6725 42.7693C8.81985 48.5666 11.6578 53.8934 15.8278 58.0765C19.9977 62.2597 25.3126 65.1114 31.1007 66.2716C36.8889 67.4317 42.8907 66.8481 48.3477 64.5945C53.8047 62.3409 58.4721 58.5184 61.7601 53.61C65.0481 48.7017 66.8091 42.9277 66.8208 37.0177C66.8285 33.0869 66.0619 29.1933 64.5648 25.5595C63.0677 21.9258 60.8695 18.6233 58.0961 15.8411C55.3227 13.0589 52.0285 10.8517 48.402 9.34565C44.7755 7.83963 40.888 7.06445 36.9619 7.06445ZM36.9619 65.9348C31.2241 65.9348 25.6153 64.2307 20.8452 61.0382C16.0751 57.8458 12.3581 53.3084 10.1645 48.0002C7.97096 42.692 7.3994 36.8517 8.52221 31.2182C9.64501 25.5847 12.4117 20.4113 16.4722 16.3525C20.5327 12.2938 25.7045 9.53225 31.3331 8.41726C36.9617 7.30226 42.7942 7.88398 48.0925 10.0888C53.3908 12.2936 57.9168 16.0224 61.0977 20.8033C64.2786 25.5843 65.9716 31.2025 65.9623 36.947C65.9623 40.7594 65.2121 44.5344 63.7545 48.0564C62.297 51.5784 60.1606 54.7784 57.4675 57.4736C54.7745 60.1688 51.5774 62.3064 48.059 63.7642C44.5405 65.2221 40.7697 65.9717 36.9619 65.9701V65.9348Z" fill="white"/>
<path d="M57.4627 57.4751C68.788 46.1363 68.788 27.7524 57.4627 16.4136C46.1373 5.07478 27.7753 5.07479 16.4499 16.4136C5.12459 27.7524 5.12458 46.1363 16.4499 57.4751C27.7753 68.8139 46.1373 68.8139 57.4627 57.4751Z" fill="#861F41"/>
<path d="M36.962 0C29.6521 3.70431e-07 22.5063 2.17006 16.4282 6.2358C10.3501 10.3015 5.6126 16.0804 2.81469 22.8416C0.0167797 29.6029 -0.715878 37.0429 0.709355 44.2211C2.13459 51.3992 5.65371 57.993 10.8218 63.1688C15.9898 68.3447 22.5747 71.8701 29.7438 73.2993C36.913 74.7285 44.3444 73.9973 51.0986 71.1982C57.8527 68.3992 63.6262 63.6579 67.689 57.5738C71.7519 51.4898 73.9216 44.3362 73.924 37.0177C73.9255 32.157 72.9706 27.3436 71.1138 22.8525C69.2569 18.3614 66.5346 14.2805 63.1022 10.8429C59.6698 7.40537 55.5946 4.67849 51.1094 2.81803C46.6242 0.957576 41.8169 -2.46024e-07 36.962 0ZM36.962 73.1523C29.8209 73.1523 22.8402 71.032 16.9027 67.0597C10.9653 63.0873 6.33782 57.4414 3.60558 50.8358C0.873335 44.2302 0.159052 36.9618 1.55307 29.9497C2.94708 22.9377 6.38678 16.4971 11.4371 11.4424C16.4875 6.38768 22.9216 2.946 29.9257 1.55262C36.9299 0.159229 44.1895 0.876729 50.7863 3.61437C57.3832 6.35201 63.021 10.9868 66.9866 16.9326C70.9523 22.8784 73.0678 29.8681 73.0655 37.0177C73.0623 46.6022 69.2572 55.7932 62.4868 62.5694C55.7165 69.3456 46.5352 73.1523 36.962 73.1523Z" fill="#861F41"/>
<path d="M36.9857 1.69531C30.0079 1.69531 23.1868 3.76692 17.385 7.64818C11.5832 11.5294 7.06125 17.046 4.39097 23.5003C1.72069 29.9546 1.02202 37.0567 2.38332 43.9085C3.74461 50.7604 7.10474 57.0542 12.0388 61.9941C16.9728 66.934 23.2592 70.2981 30.1029 71.661C36.9466 73.0239 44.0403 72.3244 50.4869 69.651C56.9335 66.9775 62.4435 62.4502 66.3202 56.6415C70.1968 50.8328 72.266 44.0036 72.266 37.0175C72.266 32.3789 71.3534 27.7858 69.5804 23.5003C67.8074 19.2148 65.2087 15.3209 61.9326 12.0409C58.6566 8.76098 54.7673 6.15916 50.4869 4.38405C46.2065 2.60895 41.6188 1.69531 36.9857 1.69531ZM36.9857 66.8059C31.0747 66.8105 25.2953 65.0585 20.3796 61.7718C15.464 58.4851 11.6333 53.8116 9.37293 48.3433C7.11252 42.8751 6.52407 36.8582 7.68213 31.0548C8.84018 25.2514 11.6926 19.9228 15.8781 15.7439C20.0636 11.565 25.3938 8.72385 31.1935 7.58045C36.9931 6.43706 43.0013 7.04283 48.4568 9.32103C53.9123 11.5992 58.5696 15.4473 61.8388 20.3779C65.1081 25.3084 66.842 31.0995 66.8211 37.0175C66.8055 44.9358 63.6528 52.5244 58.0548 58.118C52.4569 63.7115 44.8711 66.853 36.9622 66.853L36.9857 66.8059Z" fill="#861F41"/>
<path d="M36.962 0.871094C29.8214 0.871094 22.8412 2.99104 16.904 6.96286C10.9668 10.9347 6.33935 16.58 3.60677 23.1849C0.874178 29.7897 0.15921 37.0576 1.55227 44.0693C2.94533 51.081 6.38386 57.5217 11.433 62.5768C16.4822 67.632 22.9152 71.0746 29.9186 72.4693C36.922 73.864 44.1812 73.1482 50.7783 70.4124C57.3753 67.6765 63.0139 63.0436 66.981 57.0993C70.9481 51.1551 73.0655 44.1666 73.0655 37.0175C73.0655 27.4309 69.2618 18.2369 62.4911 11.4581C55.7203 4.67936 46.5373 0.871094 36.962 0.871094ZM36.962 72.3279C29.9843 72.3279 23.1632 70.2563 17.3614 66.375C11.5596 62.4938 7.03759 56.9772 4.36731 50.5229C1.69703 44.0686 0.998363 36.9665 2.35966 30.1147C3.72096 23.2628 7.08108 16.969 12.0151 12.0291C16.9492 7.08924 23.2355 3.72513 30.0792 2.36221C36.9229 0.999298 44.0166 1.6988 50.4632 4.37225C56.9099 7.0457 62.4199 11.573 66.2965 17.3817C70.1732 23.1904 72.2423 30.0196 72.2423 37.0057C72.2455 46.3717 68.533 55.3555 61.9214 61.9816C55.3099 68.6076 46.3404 72.3334 36.9856 72.3397L36.962 72.3279Z" fill="white"/>
<path d="M61.2467 15.5771H12.5835L15.9116 19.7569V49.4747C15.9116 50.1576 15.1824 57.6341 25.9547 57.6341H30.7763C31.8583 57.6341 36.7622 62.1671 36.9033 62.1789C37.0445 62.1907 41.9484 57.6341 43.0303 57.6341H47.852C58.3067 57.6341 57.8951 50.3106 57.8951 49.4747V19.7569L61.2467 15.5771Z" fill="#861F41"/>
<path d="M10.8546 14.6465L15.0411 20.0272V49.7685C15.0411 51.1579 15.1587 58.6579 25.5312 58.6579H30.5645C31.7405 58.6579 36.8091 63.6384 36.9502 63.6502C37.0913 63.6619 42.2187 58.6579 43.3477 58.6579H48.3693C58.53 58.6579 58.8593 51.1579 58.8593 49.9451V20.0626L63.0459 14.6465H10.8546ZM47.8518 57.6336H43.0537C41.9718 57.6336 37.0678 62.1902 36.9267 62.1784C36.7856 62.1666 31.8816 57.6336 30.7997 57.6336H25.978C15.2058 57.6336 15.9349 50.1571 15.9349 49.4742V19.7564L12.6068 15.5766H61.2466L57.8949 19.7564V49.4742C57.8949 50.3101 58.3418 57.6336 47.8518 57.6336Z" fill="white"/>
<path d="M52.2854 13.6693C47.7572 10.5702 42.4 8.91211 36.9149 8.91211C31.4299 8.91211 26.0726 10.5702 21.5445 13.6693H52.2854Z" fill="white"/>
<path d="M60.0706 52.3243C63.1655 47.7884 64.8212 42.423 64.8212 36.9297C64.8212 31.4365 63.1655 26.0711 60.0706 21.5352V52.3243Z" fill="white"/>
<path d="M21.5445 59.9421C25.8503 62.8683 30.9015 64.5023 36.1035 64.6517C34.5394 63.2389 31.3994 59.9421 30.588 59.9421C30.588 59.9186 26.5895 59.9421 21.5445 59.9421Z" fill="white"/>
<path d="M43.4653 59.9297C42.6185 59.9297 39.5492 63.2146 37.9851 64.6393C43.0238 64.3543 47.8954 62.7285 52.0972 59.9297C44.9353 59.9532 43.4653 59.9297 43.4653 59.9297Z" fill="white"/>
<path d="M41.8187 16.9307V19.0618V20.145H38.3024V35.5337L52.9673 35.5455V31.2479H56.5188V19.7329L58.9296 16.9307H41.8187Z" fill="white"/>
<path d="M48.2047 22.3467H44.2415V25.667H40.5606V29.9174H44.2415V33.3554H48.2047V29.9174H51.5681V25.667H48.2047V22.3467Z" fill="#861F41"/>
<path d="M47.8755 48.05V41.1387H44.5238V48.05H41.1252C41.1761 48.9133 41.5544 49.7245 42.1829 50.3177C42.8114 50.9109 43.6425 51.2413 44.5062 51.2413C45.3699 51.2413 46.201 50.9109 46.8295 50.3177C47.458 49.7245 47.8364 48.9133 47.8872 48.05H47.8755Z" fill="white"/>
<path d="M29.5649 25.7264H32.9753C32.9245 24.8631 32.5461 24.0519 31.9176 23.4587C31.2891 22.8655 30.458 22.5352 29.5943 22.5352C28.7306 22.5352 27.8995 22.8655 27.271 23.4587C26.6425 24.0519 26.2641 24.8631 26.2133 25.7264V29.9533H22.8028C22.8537 30.8165 23.2321 31.6277 23.8606 32.2209C24.489 32.8141 25.3201 33.1445 26.1839 33.1445C27.0476 33.1445 27.8787 32.8141 28.5072 32.2209C29.1357 31.6277 29.514 30.8165 29.5649 29.9533V25.7264Z" fill="white"/>
<path d="M36.9622 16.9669L32.0347 16.9551V20.1812H35.5627V34.5573L36.9504 35.9467L36.9622 16.9669Z" fill="white"/>
<path d="M36.9502 56.9043L41.8777 56.916V53.69H38.3496V39.3845L36.962 37.9951L36.9502 56.9043Z" fill="white"/>
<path d="M20.1805 35.5693V32.0488H16.97V36.9704H35.9273L34.5514 35.581L20.1805 35.5693Z" fill="white"/>
<path d="M56.8717 41.904V36.9707L37.9732 36.9825L39.3609 38.3718H53.6612V41.904H56.8717Z" fill="white"/>
<path d="M35.5744 53.7135V38.4072H20.8978V42.4457H17.5462V49.8281C17.5462 49.8281 17.1816 54.1138 20.3451 55.3972C22.7794 56.6924 27.213 56.4569 29.7532 56.4569C30.5164 56.4565 31.2775 56.5394 32.0229 56.7041V53.7488L35.5744 53.7135Z" fill="white"/>
<path d="M29.8588 40.915H25.8957V44.2471H22.2265V48.4975H25.8957V51.9356H29.8588V48.4975H33.2222V44.2471H29.8588V40.915Z" fill="#861F41"/>
<path d="M33.0811 56.9043H36.1387V59.424L33.0811 56.9043Z" fill="white"/>
<path fill-rule="evenodd" clip-rule="evenodd" d="M56.4838 9.89044V9.80803H56.3074V9.91399H55.5783V9.08981H55.6724V8.88965H55.6018H55.1197H55.0491V9.08981H55.1432V9.91399H54.3788V9.80803H54.1906V9.89044V10.3967V10.4791H54.3788V10.3732H55.1432V11.162H55.0491V11.3504H55.1197H55.6018H55.6724V11.162H55.5783V10.3732H56.3074V10.4791H56.4838V10.3967V9.89044Z" fill="white"/>
<path fill-rule="evenodd" clip-rule="evenodd" d="M19.71 9.89044V9.80803H19.5336V9.91399H18.7927V9.08981H18.8985V8.88965H18.8162H18.3458H18.2752V9.08981H18.3693V9.91399H17.5932V9.80803H17.4168V9.89044V10.3967V10.4791H17.5932V10.3732H18.3693V11.162H18.2752V11.3504H18.3458H18.8162H18.8985V11.162H18.7927V10.3732H19.5336V10.4791H19.71V10.3967V9.89044Z" fill="white"/>
<path d="M8.94937 19.2624C8.64361 19.2035 7.9968 19.1682 7.77336 19.6038C7.73897 19.6602 7.7168 19.7231 7.70829 19.7886C7.69978 19.8541 7.70513 19.9207 7.72399 19.984C7.74284 20.0473 7.77478 20.1059 7.81773 20.156C7.86067 20.2061 7.91367 20.2466 7.97328 20.2749C8.10155 20.339 8.24671 20.3609 8.38815 20.3377C8.52959 20.3144 8.66012 20.2472 8.76121 20.1454H8.83177C8.99139 19.9697 9.20036 19.8465 9.43123 19.7918C9.6621 19.7372 9.90408 19.7537 10.1254 19.8393C10.2542 19.9216 10.3644 20.03 10.4488 20.1576C10.5333 20.2851 10.59 20.429 10.6155 20.5798C10.641 20.7307 10.6346 20.8853 10.5968 21.0335C10.559 21.1818 10.4905 21.3204 10.3959 21.4406C10.3147 21.5749 10.2158 21.6977 10.1019 21.8056C10.0413 21.8781 9.97443 21.9451 9.90194 22.0057C9.66074 21.8868 9.41343 21.7806 9.16105 21.6878L9.24337 21.4759C9.59617 21.5583 9.99602 21.5818 10.2077 21.2404C10.2393 21.1906 10.2604 21.1348 10.2698 21.0766C10.2792 21.0183 10.2766 20.9587 10.2624 20.9015C10.2481 20.8442 10.2223 20.7905 10.1866 20.7435C10.1509 20.6965 10.1061 20.6573 10.0548 20.6282C9.83138 20.4986 9.59617 20.6282 9.30217 20.793L9.20809 20.8636C9.02978 21.0391 8.80026 21.1531 8.55283 21.1891C8.30541 21.2251 8.05297 21.1812 7.83216 21.0638C7.69646 20.9745 7.58069 20.8581 7.49215 20.7218C7.40361 20.5856 7.34421 20.4324 7.3177 20.272C7.29118 20.1117 7.29813 19.9475 7.33809 19.79C7.37806 19.6324 7.45018 19.4848 7.54992 19.3566C7.64664 19.1956 7.7654 19.0489 7.90272 18.9209L8.1732 18.709C8.39665 18.7914 8.67889 18.8738 8.99641 19.0033L8.94937 19.2624Z" fill="white"/>
<path d="M5.42145 24.1607V24.3138C5.36265 24.4904 5.42145 24.5257 5.60961 24.5375H6.16233L6.47986 23.7604L6.08001 23.4308C5.90361 23.2777 5.85657 23.2659 5.73897 23.4308L5.66841 23.5603L5.49201 23.4779L5.93889 22.3711L6.12705 22.4535C6.05649 22.7125 6.05649 22.7832 6.38578 23.1129L8.44379 25.0673L8.37323 25.4206H7.3501L5.50377 25.3499C5.02161 25.3499 4.96281 25.3499 4.8452 25.6207L4.65704 25.5501L5.28033 24.0666L5.42145 24.1607ZM6.69154 23.9841L6.44458 24.5846L7.47947 24.667L6.69154 23.9841Z" fill="white"/>
<path d="M4.53947 28.9997C4.01027 28.8585 3.96323 28.882 3.84563 29.2235H3.64571L4.06907 27.5986H4.24547C4.18667 27.9519 4.24547 27.9989 4.75116 28.1402L6.38581 28.5641C6.91501 28.7054 6.96205 28.6701 7.07965 28.3404H7.27957L6.85621 29.9534H6.66805C6.72685 29.6002 6.66805 29.5531 6.16236 29.4118L4.53947 28.9997Z" fill="white"/>
<path d="M2.78716 34.4857V34.05L5.42142 32.437L4.48061 32.331C4.16759 32.3076 3.8536 32.2997 3.5398 32.3075C3.35164 32.3075 3.26932 32.4488 3.22228 32.7784H3.02236L3.16348 31.5068H3.3634C3.3634 31.7305 3.3634 31.8718 3.57508 31.9189C3.89723 31.9887 4.22313 32.0399 4.55117 32.072L5.48022 32.178C5.85654 32.178 5.9271 32.178 6.07998 32.178C6.13928 32.1341 6.18802 32.0775 6.22261 32.0123C6.25721 31.9471 6.27678 31.8749 6.2799 31.8012H6.47982L6.36222 32.9786L4.0102 34.4386L4.69229 34.5092C5.01615 34.5503 5.34198 34.5739 5.66838 34.5799C5.84478 34.5799 5.9271 34.4504 5.9859 34.1089H6.18582L6.03294 35.4041H5.83302C5.83302 35.145 5.83302 35.0037 5.62134 34.9566C5.3032 34.8866 4.98119 34.8355 4.65701 34.8036L2.78716 34.4857Z" fill="white"/>
<path d="M3.6575 39.2191C3.10478 39.2191 3.0695 39.2898 3.05774 39.7254H2.85781L2.76373 37.9358H2.96365C2.96365 38.3361 3.05773 38.3832 3.61046 38.3479L5.85664 38.2301V38.1948C5.85664 37.8534 5.77432 37.7238 5.66847 37.6414C5.51357 37.551 5.34116 37.4948 5.16279 37.4766V37.2646C5.59792 37.2646 5.95072 37.2646 6.20944 37.2646V37.4295C6.1036 37.5119 6.09184 37.559 6.1036 37.7003L6.20944 39.749C6.20944 39.8785 6.20944 39.902 6.35056 39.9845V40.1375L5.32743 40.2553V40.0316C5.51765 39.9931 5.69541 39.9082 5.84488 39.7843C5.93896 39.7019 5.95072 39.5253 5.93896 39.278V39.1603L3.6575 39.2191Z" fill="white"/>
<path d="M6.70336 46.4366C7.23256 46.2718 7.25608 46.2129 7.162 45.8479L7.36192 45.7891L7.86761 47.3786H7.67945C7.55009 47.0724 7.50305 47.0371 6.97384 47.2137L5.49207 47.6965C5.23319 47.8363 4.93586 47.8878 4.64512 47.8431C4.35438 47.7985 4.0861 47.6602 3.88094 47.4492C3.72922 47.291 3.60589 47.1078 3.51637 46.9076L3.68102 46.7663C3.76455 46.883 3.88013 46.973 4.01373 47.0253C4.14733 47.0775 4.29321 47.0898 4.43366 47.0607C4.70472 47.0135 4.97199 46.9466 5.23335 46.8605L6.70336 46.4366Z" fill="white"/>
<path d="M6.22134 51.488L6.30366 51.6175C6.4095 51.7823 6.45654 51.7588 6.59766 51.6175L6.98575 51.229L6.63294 50.4636L6.1155 50.5343C5.89206 50.5343 5.84502 50.5932 5.92734 50.8169V50.9582L5.73918 51.0406L5.28053 49.9691L5.4687 49.8867C5.60982 50.0987 5.65686 50.1693 6.1155 50.134L8.94968 49.9691L9.17312 50.2635L8.444 50.9935C7.98535 51.4527 7.52671 51.9001 7.13863 52.3004C6.75054 52.7007 6.82111 52.736 6.90343 52.9833L6.71526 53.0657L6.03318 51.6057L6.22134 51.488ZM6.95046 50.4165L7.22095 51.017L7.97359 50.3106L6.95046 50.4165Z" fill="white"/>
<path d="M13.1593 56.7157L12.9947 56.8334C12.7359 56.5391 12.7124 56.5391 12.289 56.8334L10.9249 57.8813C10.4662 58.2345 10.4662 58.2463 10.6544 58.5642L10.4898 58.682L9.54894 57.3868L9.71359 57.2691C9.96055 57.5516 9.98407 57.5634 10.4427 57.2691L11.901 56.1976L9.23142 56.9158L9.06678 56.6921L10.4545 54.5257L9.51366 55.1615C9.27888 55.3147 9.05491 55.4838 8.84334 55.6678C8.70222 55.7973 8.72574 55.9151 8.90214 56.1976L8.7375 56.3154L7.99661 55.291L8.16125 55.1733C8.31413 55.3617 8.41998 55.4088 8.58462 55.3263C8.85184 55.1882 9.11099 55.0349 9.36078 54.8672L10.231 54.302C10.7838 53.9488 10.7955 53.8781 10.5956 53.5367L10.7485 53.4189L11.4658 54.3962L10.3486 56.3154L12.4772 55.7031L13.1593 56.7157Z" fill="white"/>
<path d="M14.3355 59.1652C14.7236 58.7648 14.7119 58.706 14.4884 58.4469L14.6295 58.3057L16.3818 59.9894L15.8408 60.6369L15.6644 60.4956C15.7766 60.3587 15.8425 60.1897 15.8526 60.0129C15.8526 59.8952 15.7585 59.7539 15.5586 59.5655L15.4998 59.5066C15.3587 59.3771 15.3469 59.3653 15.2293 59.5066L14.5472 60.2248L14.7236 60.4014C15.0529 60.7076 15.0764 60.6958 15.3822 60.4014L15.5468 60.5545L14.7119 61.4258L14.5472 61.2727C14.8295 60.9077 14.8412 60.8842 14.5472 60.5781L14.3708 60.4014L13.7946 61.0019C13.6064 61.1903 13.5241 61.2963 13.5594 61.3905C13.617 61.4969 13.6926 61.5925 13.7828 61.673C13.9133 61.8193 14.0936 61.9117 14.2885 61.9321C14.4799 61.9073 14.664 61.8431 14.8295 61.7437L14.9706 61.9203C14.7285 62.1182 14.4731 62.2992 14.2062 62.4619L12.3246 60.6605L12.4774 60.5663C12.7832 60.8253 12.842 60.8253 13.2183 60.425L14.3355 59.1652Z" fill="white"/>
<path d="M16.817 63.2618C16.7229 63.568 16.6288 64.2038 17.0404 64.4392C17.092 64.4803 17.1518 64.5097 17.2158 64.5254C17.2797 64.5412 17.3463 64.5431 17.4111 64.5308C17.4758 64.5185 17.5371 64.4924 17.5908 64.4542C17.6446 64.4161 17.6895 64.3668 17.7225 64.3097C17.8021 64.1884 17.8395 64.0442 17.8288 63.8994C17.8182 63.7547 17.7601 63.6175 17.6637 63.5091V63.4385C17.5049 63.2539 17.4071 63.0245 17.384 62.782C17.3608 62.5395 17.4133 62.2958 17.5343 62.0844C17.6273 61.9633 17.7447 61.8632 17.879 61.7908C18.0133 61.7183 18.1614 61.6751 18.3135 61.664C18.4657 61.6529 18.6185 61.6741 18.7618 61.7263C18.9052 61.7784 19.0359 61.8604 19.1455 61.9667C19.2727 62.0571 19.3874 62.164 19.4865 62.2846L19.6629 62.5083C19.5571 62.6731 19.4395 62.9086 19.2866 63.2147L19.0749 63.1205C19.1807 62.7791 19.2513 62.3788 18.9338 62.1315C18.8865 62.0959 18.8324 62.0703 18.7749 62.0563C18.7174 62.0423 18.6577 62.0402 18.5993 62.0502C18.541 62.0601 18.4853 62.0818 18.4356 62.114C18.386 62.1462 18.3434 62.1882 18.3105 62.2375C18.1576 62.4377 18.2164 62.6731 18.4046 62.991L18.4634 63.097C18.663 63.3125 18.7689 63.5985 18.7579 63.8922C18.7469 64.1858 18.6198 64.4631 18.4046 64.663C18.1894 64.8628 17.9037 64.9689 17.6104 64.9578C17.317 64.9468 17.0401 64.8195 16.8405 64.6041C16.6906 64.4922 16.5596 64.3571 16.4524 64.2038C16.3778 64.1137 16.3147 64.0149 16.2642 63.9094C16.3701 63.6975 16.4759 63.4384 16.6288 63.1205L16.817 63.2618Z" fill="white"/>
<path d="M24.2375 67.5356C24.2375 67.8535 24.3198 68.4893 24.7785 68.713C24.8399 68.7387 24.9061 68.7508 24.9727 68.7483C25.0392 68.7458 25.1043 68.7288 25.1636 68.6986C25.2229 68.6683 25.275 68.6255 25.3161 68.5731C25.3572 68.5207 25.3864 68.46 25.4018 68.3951C25.5194 68.1126 25.4018 67.8771 25.143 67.6416C24.9433 67.504 24.7909 67.308 24.7066 67.0804C24.6224 66.8528 24.6106 66.6046 24.6726 66.37C24.7287 66.228 24.8144 66.0996 24.9241 65.9935C25.0338 65.8873 25.1648 65.8059 25.3085 65.7546C25.4521 65.7033 25.6051 65.6834 25.757 65.6961C25.909 65.7088 26.0565 65.7539 26.1897 65.8284C26.3363 65.884 26.4748 65.9593 26.6013 66.0521C26.6805 66.1003 26.7553 66.1555 26.8247 66.2169C26.8247 66.4053 26.7189 66.6526 26.6483 67.0058H26.4249C26.4249 66.6526 26.4249 66.2405 26.0251 66.0992C25.9704 66.0767 25.9117 66.0655 25.8526 66.0665C25.7935 66.0674 25.7352 66.0804 25.6813 66.1046C25.6274 66.1289 25.579 66.1639 25.539 66.2075C25.499 66.2511 25.4683 66.3024 25.4488 66.3582C25.3547 66.5937 25.4488 66.8056 25.7428 67.0647L25.8369 67.1471C26.0421 67.293 26.1951 67.501 26.2734 67.7405C26.3517 67.98 26.3512 68.2384 26.272 68.4775C26.2056 68.6225 26.1104 68.7524 25.9923 68.8593C25.8742 68.9663 25.7356 69.0482 25.5849 69.0999C25.4342 69.1517 25.2747 69.1722 25.1158 69.1604C24.957 69.1485 24.8022 69.1045 24.6609 69.0309C24.4856 68.9643 24.3226 68.8688 24.1787 68.7483L23.92 68.5246C23.92 68.2892 24.0023 68.0066 24.0611 67.6534L24.2375 67.5356Z" fill="white"/>
<path d="M31.2935 68.2655C31.2935 67.6179 30.9877 67.3942 30.6349 67.3118C30.0351 67.1822 29.5177 67.7592 29.3531 68.4892C29.1531 69.4075 29.4824 70.1022 29.9881 70.2082C30.4938 70.3141 30.7408 70.0787 31.1641 69.5842L31.3758 69.6666C31.2442 69.9662 31.0868 70.2538 30.9054 70.5261C30.5928 70.5618 30.2772 70.5618 29.9646 70.5261C29.7217 70.5069 29.4859 70.4356 29.2731 70.3169C29.0603 70.1981 28.8756 70.0348 28.7316 69.8381C28.5876 69.6414 28.4877 69.4159 28.4386 69.177C28.3896 68.9381 28.3927 68.6915 28.4475 68.4538C28.5065 68.2073 28.6158 67.9756 28.7686 67.7735C28.9214 67.5713 29.1143 67.403 29.3353 67.2791C29.5562 67.1552 29.8004 67.0785 30.0524 67.0537C30.3044 67.0289 30.5588 67.0567 30.7996 67.1351C31.0976 67.2111 31.3857 67.3218 31.658 67.4648C31.658 67.7474 31.658 67.9711 31.564 68.3597L31.2935 68.2655Z" fill="white"/>
<path d="M35.9975 69.1605V68.56C35.9975 68.0067 35.9975 67.9713 35.6565 67.9242V67.7241L37.3029 67.7947V67.9949C36.9383 67.9949 36.8913 67.9949 36.8678 68.5954V70.2908C36.8678 70.8442 36.8677 70.8795 37.2323 70.9266V71.1621L35.5506 71.0915V70.8913C35.9152 70.8913 35.9622 70.8913 35.9857 70.2908V69.5137H34.9273V70.2908C34.9273 70.8442 34.9273 70.8795 35.2801 70.9266V71.1268L33.6455 70.9855V70.7853C33.9983 70.7853 34.0453 70.7265 34.0571 70.1731L34.1276 68.4894C34.1276 67.9242 34.1276 67.8889 33.7396 67.8418V67.6299L35.3742 67.7005V67.9007C35.0685 67.9007 35.0214 67.9007 34.9979 68.5012V69.1016L35.9975 69.1605Z" fill="white"/>
<path d="M43.1478 68.8071C43.1969 69.0371 43.1973 69.2749 43.149 69.5051C43.1007 69.7353 43.0047 69.9528 42.8673 70.1436C42.73 70.3344 42.5542 70.4942 42.3513 70.6128C42.1484 70.7315 41.923 70.8062 41.6895 70.8323C41.4671 70.8724 41.2388 70.8666 41.0187 70.8152C40.7987 70.7637 40.5914 70.6678 40.4097 70.5333C40.228 70.3988 40.0756 70.2285 39.962 70.0329C39.8484 69.8373 39.776 69.6205 39.7491 69.3958C39.7074 69.1623 39.7137 68.9227 39.7677 68.6917C39.8217 68.4608 39.9223 68.2433 40.0632 68.0526C40.2042 67.8618 40.3825 67.702 40.5873 67.5827C40.7921 67.4634 41.0191 67.3873 41.2544 67.3589C41.4748 67.3206 41.7008 67.3283 41.9182 67.3816C42.1355 67.4349 42.3395 67.5326 42.5173 67.6686C42.6951 67.8046 42.8429 67.976 42.9514 68.1719C43.0599 68.3678 43.1267 68.5841 43.1478 68.8071ZM40.6781 69.0779C40.8075 70.0081 41.2544 70.6203 41.7483 70.5497C42.2422 70.4791 42.3598 70.0316 42.2305 69.1133C42.1011 68.1949 41.6307 67.5826 41.1956 67.6415C40.7605 67.7004 40.5488 68.1713 40.7017 69.0544L40.6781 69.0779Z" fill="white"/>
<path d="M48.8513 67.1004C48.9396 67.319 48.981 67.5537 48.9729 67.7894C48.9648 68.0251 48.9073 68.2564 48.8042 68.4684C48.7011 68.6804 48.5546 68.8684 48.3744 69.0201C48.1941 69.1718 47.984 69.284 47.7577 69.3492C47.5466 69.4301 47.3212 69.4667 47.0955 69.4566C46.8698 69.4465 46.6485 69.39 46.4455 69.2906C46.2426 69.1912 46.0622 69.051 45.9156 68.8788C45.7691 68.7066 45.6596 68.506 45.5938 68.2896C45.5104 68.0636 45.475 67.8227 45.4899 67.5823C45.5048 67.3418 45.5697 67.1071 45.6804 66.8932C45.7911 66.6794 45.9451 66.4909 46.1327 66.3401C46.3203 66.1892 46.5373 66.0792 46.7698 66.0172C46.9774 65.9481 47.1967 65.9214 47.4148 65.9387C47.6329 65.9561 47.8453 66.017 48.0394 66.118C48.2335 66.2191 48.4054 66.3581 48.5448 66.5268C48.6843 66.6955 48.7885 66.8906 48.8513 67.1004ZM46.4993 67.8186C46.7933 68.7017 47.346 69.2315 47.8165 69.0667C48.2869 68.9018 48.3339 68.4426 48.0281 67.5596C47.7224 66.6765 47.1696 66.1702 46.758 66.3115C46.3464 66.4528 46.1818 66.9709 46.464 67.8186H46.4993Z" fill="white"/>
<path d="M52.4617 66.4522C52.5793 66.6876 52.6498 66.8054 52.7557 66.7936C52.8766 66.7797 52.993 66.7395 53.0967 66.6759C53.2378 66.5935 53.426 66.4757 53.4613 66.3109C53.501 66.1246 53.501 65.932 53.4613 65.7457L53.673 65.6751C53.7738 65.961 53.8601 66.2518 53.9317 66.5464L51.6855 67.7238L51.5914 67.5471C51.9207 67.3352 51.9442 67.2881 51.6855 66.7936L50.8741 65.2748C50.6153 64.792 50.5683 64.7802 50.2508 64.9098L50.1096 64.7331L51.5797 63.9561L51.6737 64.1327C51.3562 64.3328 51.3445 64.3799 51.6032 64.8627L52.4617 66.4522Z" fill="white"/>
<path d="M62.6225 53.8193L62.7754 53.9371C62.5755 54.2785 62.5755 54.3021 63.0224 54.6082L64.4218 55.609C64.8922 55.9387 64.904 55.9387 65.1509 55.609L65.3156 55.7267L64.3512 57.0337L64.1866 56.9159C64.3983 56.5862 64.3865 56.5627 63.9279 56.2212L62.4814 55.1498L63.9396 57.5046L63.775 57.7283L61.2819 57.0337L62.1639 57.7519C62.3824 57.934 62.6143 58.0993 62.8577 58.2464C63.0106 58.3524 63.1164 58.2464 63.3399 58.0345L63.5045 58.1522L62.7401 59.1648L62.5755 59.047C62.7166 58.8351 62.7283 58.7291 62.5755 58.5878C62.4226 58.4465 62.2579 58.2817 61.9051 57.9874L61.1055 57.3162C60.6115 56.9041 60.541 56.9041 60.2705 57.1985L60.1176 57.0808L60.835 56.1153L62.9988 56.6216L61.8228 54.773L62.6225 53.8193Z" fill="white"/>
<path d="M67.2444 51.8879V51.7349C67.2444 51.5583 67.2444 51.5229 67.068 51.4994H66.5153L66.1507 52.2529L66.5153 52.6062C66.6799 52.771 66.7387 52.7945 66.8563 52.6062L66.9386 52.4766L67.115 52.5591L66.5858 53.6305L66.4565 53.501C66.5388 53.2537 66.5623 53.1713 66.2448 52.8299L64.3279 50.7341L64.4102 50.3809L65.4333 50.4986L67.2797 50.6988C67.7501 50.6988 67.8206 50.6988 67.95 50.4633L68.1382 50.5575L67.4208 51.9939L67.2444 51.8879ZM65.9508 51.9821L66.2448 51.3934L65.2216 51.2404L65.9508 51.9821Z" fill="white"/>
<path d="M68.5614 46.9314C69.0906 47.0845 69.1376 47.061 69.267 46.7313H69.4551L68.9847 48.2737H68.7966C68.8671 47.9087 68.7966 47.8616 68.3144 47.6968L66.7033 47.214C66.1741 47.0492 66.127 47.0727 65.9977 47.3906H65.8095L66.2682 45.8482C66.3304 45.5534 66.4776 45.2832 66.6915 45.0711C66.7905 44.9865 66.9091 44.9281 67.0365 44.9013C67.164 44.8746 67.296 44.8803 67.4206 44.9181C67.6097 44.9772 67.7741 45.0967 67.8888 45.2583C68.0035 45.42 68.0621 45.6148 68.0557 45.8129C68.2203 45.8129 68.6084 45.7069 68.8789 45.6245C69.0939 45.5734 69.3059 45.5105 69.5139 45.4361C69.6331 45.3886 69.7354 45.3066 69.8079 45.2007L69.9726 45.2713L69.902 45.4832C69.6786 46.1661 69.4787 46.2839 69.1376 46.4016C68.8415 46.4845 68.5384 46.5396 68.2321 46.5664C68.1807 46.5658 68.1301 46.5799 68.0863 46.607C68.0426 46.6341 68.0075 46.6731 67.9851 46.7195L68.5614 46.9314ZM67.7499 46.6724V46.6135C67.7957 46.484 67.7957 46.3427 67.7499 46.2132C67.7019 46.0997 67.6279 45.999 67.534 45.9192C67.44 45.8395 67.3287 45.7829 67.209 45.754C67.1392 45.7191 67.063 45.699 66.9851 45.6951C66.9073 45.6911 66.8294 45.7033 66.7565 45.731C66.6835 45.7586 66.6171 45.8011 66.5614 45.8557C66.5057 45.9104 66.4619 45.976 66.4328 46.0484C66.4328 46.2603 66.4328 46.2721 66.5739 46.331L67.7499 46.6724Z" fill="white"/>
<path d="M69.7963 41.2677C70.349 41.3384 70.3843 41.2677 70.4783 40.8909H70.6783L70.4313 42.6453H70.2314C70.2314 42.245 70.2314 42.1979 69.6787 42.1155L69.2435 42.0566C69.1358 42.0264 69.0219 42.0264 68.9143 42.0566C68.6673 42.1272 68.3262 42.2685 67.6677 42.5275C67.3149 42.6571 67.2796 42.7159 67.2208 42.9396H67.0209L67.2443 41.3737H67.4442V41.5856C67.4442 41.7151 67.503 41.7034 67.6206 41.668L68.7967 41.2795C68.6203 41.1617 68.1616 40.8674 67.8206 40.6672C67.703 40.5848 67.6324 40.573 67.5854 40.7497V40.9616H67.3854L67.5618 39.7842H67.7618C67.7618 40.0668 67.7618 40.161 68.0793 40.3847C68.3968 40.6084 68.632 40.8203 68.9731 41.0558C69.0877 41.1481 69.2265 41.2053 69.3729 41.2206L69.7963 41.2677Z" fill="white"/>
<path d="M70.102 36.7587C70.3724 36.7587 70.5018 36.7587 70.5371 36.6527C70.566 36.5328 70.566 36.4077 70.5371 36.2877C70.5492 36.1991 70.5418 36.1089 70.5154 36.0235C70.489 35.9381 70.4442 35.8595 70.3842 35.7932C70.2354 35.6753 70.0629 35.591 69.8785 35.546V35.3223C70.0667 35.3223 70.6076 35.4636 70.7605 35.5107V38.0538H70.5606C70.5606 37.6653 70.49 37.6182 69.9373 37.63H68.385C67.8323 37.63 67.797 37.63 67.7617 38.0185H67.5618V36.3584H67.7499C67.7499 36.7234 67.8205 36.7705 68.3732 36.7587H70.102Z" fill="white"/>
<path d="M70.2429 31.5307V31.3776C70.2429 31.201 70.1371 31.201 69.9607 31.2952L69.4785 31.5542L69.6079 32.3902L70.1135 32.4608C70.3488 32.4608 70.3958 32.4608 70.384 32.2489V32.0958H70.584L70.7721 33.2732H70.5722C70.5016 33.026 70.4663 32.9553 70.0195 32.8494L67.1853 32.3078L67.0677 31.9663L67.9615 31.4718L69.5843 30.5652C69.9959 30.3297 70.0077 30.2355 69.996 29.9883H70.1959L70.4428 31.5778L70.2429 31.5307ZM69.2551 32.3549L69.1492 31.6955L68.2319 32.1783L69.2551 32.3549Z" fill="white"/>
<path d="M68.6552 24.6553L68.8081 25.0791L67.1264 27.6577L68.0202 27.3515C68.5259 27.1749 68.7846 27.069 68.9375 26.9983C69.0904 26.9277 69.1139 26.7628 69.0198 26.4332L69.208 26.3743L69.6196 27.5517L69.4314 27.6223C69.3491 27.4104 69.2315 27.3044 69.0551 27.3398C68.7369 27.4179 68.4229 27.5122 68.1143 27.6223L67.2205 27.9167C66.8677 28.0462 66.8089 28.0698 66.7031 28.2228C66.6701 28.2865 66.6529 28.3571 66.6529 28.4289C66.6529 28.5006 66.6701 28.5712 66.7031 28.6349L66.5149 28.7055L66.1503 27.6341L67.6086 25.2793L66.9618 25.503C66.6492 25.602 66.3428 25.72 66.0445 25.8562C65.8799 25.9386 65.8681 26.0917 65.9622 26.4214H65.7622L65.3506 25.244H65.5153C65.6094 25.4912 65.7152 25.5854 65.8916 25.5619C66.2103 25.4854 66.5244 25.3911 66.8324 25.2793L68.6552 24.6553Z" fill="white"/>
<path d="M63.7515 22.1235C63.4436 21.677 63.3252 21.1266 63.4222 20.5928C63.4719 20.4046 63.5589 20.2284 63.6781 20.0747C63.7973 19.9209 63.9463 19.7928 64.1161 19.698C64.3508 19.5677 64.611 19.49 64.8787 19.47C65.1463 19.45 65.4151 19.4884 65.6666 19.5823C65.9181 19.6763 66.1462 19.8237 66.3353 20.0144C66.5244 20.2051 66.67 20.4346 66.7621 20.687L67.4089 21.8644L67.2325 21.9704C67.0208 21.6525 66.9738 21.6407 66.4916 21.8998L65.0098 22.7357C64.5277 23.0065 64.5159 23.0536 64.657 23.3597L64.4806 23.4657L63.7515 22.1235ZM66.1035 21.1227C66.5034 20.899 66.5269 20.7577 66.4093 20.534C66.2917 20.3103 65.5508 20.0041 64.7511 20.4398C63.9514 20.8754 63.7985 21.6172 64.0102 22.0057C64.0463 22.0726 64.0941 22.1324 64.1513 22.1823C64.2364 22.1642 64.3166 22.128 64.3865 22.0764L66.1035 21.1227Z" fill="white"/>
<path d="M28.283 3.95567C28.6476 3.80261 29.0945 3.61422 29.459 3.41406L30.0353 6.05145C30.1058 6.38113 30.1176 6.3929 30.5292 6.34581V6.54596L28.9181 6.89919V6.69903C29.2944 6.58129 29.3062 6.55774 29.2356 6.22806L28.8122 4.29712C28.8122 4.08518 28.7299 4.06164 28.5653 4.08519H28.3065L28.283 3.95567Z" fill="white"/>
<path d="M35.4329 3.47367C35.4298 3.61326 35.3847 3.74866 35.3036 3.86222C35.1903 3.96506 35.0637 4.05218 34.9272 4.12124C35.1216 4.1754 35.2957 4.2859 35.4275 4.43883C35.5593 4.59176 35.643 4.78031 35.6681 4.98075C35.6681 5.29302 35.5442 5.5925 35.3237 5.8133C35.1031 6.03411 34.804 6.15816 34.4921 6.15816C33.8218 6.15816 33.3161 5.9109 33.3161 5.3222C33.3106 5.13535 33.3781 4.95373 33.5043 4.81591C33.6296 4.6914 33.7772 4.59156 33.9394 4.52156C33.7813 4.46997 33.6416 4.37352 33.5372 4.24393C33.4328 4.11434 33.3683 3.95719 33.3514 3.79157C33.3512 3.65763 33.3783 3.52505 33.4308 3.40188C33.4834 3.27871 33.5604 3.16752 33.6571 3.07503C33.7539 2.98255 33.8684 2.91071 33.9938 2.86387C34.1191 2.81703 34.2526 2.79617 34.3863 2.80255C35.0096 2.73191 35.3976 3.06158 35.4329 3.47367ZM34.0452 3.47367C34.0452 3.74447 34.3157 3.90931 34.645 4.01528C34.6955 3.94448 34.7309 3.86407 34.7491 3.77901C34.7673 3.69395 34.7679 3.60606 34.7508 3.52077C34.7551 3.41139 34.7191 3.30425 34.6498 3.21963C34.5804 3.13501 34.4825 3.07878 34.3745 3.06158C34.282 3.07052 34.1964 3.1145 34.1352 3.18453C34.074 3.25457 34.0418 3.34536 34.0452 3.43835V3.47367ZM34.9743 5.3222C34.9743 5.01607 34.6685 4.81591 34.2687 4.66285C34.1963 4.7421 34.1403 4.83493 34.104 4.93598C34.0676 5.03703 34.0517 5.14429 34.057 5.25156C34.057 5.67542 34.3628 5.9109 34.598 5.89913C34.8332 5.88735 34.986 5.61655 34.9743 5.28688V5.3222Z" fill="white"/>
<path d="M38.3496 4.93307C38.8553 4.32081 39.7726 3.2376 40.0666 2.9668L40.5723 3.02567L40.3723 5.03903H40.7957V5.38048H40.3723V5.74548C40.3723 5.93386 40.3723 5.99273 40.4899 6.01628H40.7251V6.21644L39.1493 6.06337V5.86322H39.4198C39.5491 5.86322 39.5727 5.80435 39.5844 5.62774V5.25097L38.2791 5.22742L38.3496 4.93307ZM39.5962 4.93307L39.7138 3.75566C39.4668 4.05001 39.1846 4.47388 38.8788 4.93307H39.5962Z" fill="white"/>
<path d="M43.0536 6.7108V6.58129C43.3829 6.3929 43.7475 6.16919 44.065 5.94549C44.4445 5.71466 44.7347 5.36187 44.8882 4.94469C44.9156 4.877 44.9281 4.80417 44.9247 4.73121C44.9213 4.65825 44.9022 4.58688 44.8687 4.52201C44.8352 4.45713 44.788 4.40029 44.7305 4.35537C44.673 4.31046 44.6064 4.27853 44.5354 4.2618C44.4076 4.24378 44.2774 4.25567 44.155 4.29653C44.0326 4.33739 43.9213 4.4061 43.8298 4.49728L43.7005 4.33244L44.1238 3.94389C44.3878 3.79362 44.6997 3.75143 44.9941 3.82615C45.1226 3.84901 45.2449 3.89873 45.353 3.97208C45.461 4.04542 45.5524 4.14075 45.6212 4.25185C45.69 4.36294 45.7347 4.4873 45.7522 4.61682C45.7698 4.74635 45.7599 4.87812 45.7232 5.00356C45.5938 5.46275 45.2763 5.66291 44.6295 6.01613L44.0062 6.34581L44.7824 6.54597C45.0529 6.62838 45.1234 6.64016 45.3351 6.38113L45.535 6.48709C45.3822 6.79322 45.241 7.04048 45.1234 7.28773L43.0536 6.7108Z" fill="white"/>
<path fill-rule="evenodd" clip-rule="evenodd" d="M58.7064 61.9432V61.8608H58.53V61.9667H57.8009V61.1425H57.895V60.9424H57.8244H57.3423H57.2717V61.1425H57.3658V61.9667H56.6014V61.8608H56.4132V61.9432V62.4495V62.5319H56.6014V62.4259H57.3658V63.2148H57.2717V63.4032H57.3423H57.8244H57.895V63.2148H57.8009V62.4259H58.53V62.5319H58.7064V62.4495V61.9432Z" fill="white"/>
<path d="M13.9002 21.6055C10.8054 26.1414 9.14969 31.5068 9.14969 37.0001C9.14969 42.4933 10.8054 47.8587 13.9002 52.3946V21.6055Z" fill="white"/>
</g>
<defs>
<clipPath id="clip0_3940_14243">
<rect width="300" height="74" fill="white"/>
</clipPath>
</defs>
</svg>
